<svg xmlns="http://www.w3.org/2000/svg" style="display:none">
    <symbol id="i-book" viewBox="0 0 24 24" fill="none" stroke="currentColor" stroke-width="2" stroke-linecap="round" stroke-linejoin="round"><path d="M2 3h6a4 4 0 0 1 4 4v14a3 3 0 0 0-3-3H2z"/><path d="M22 3h-6a4 4 0 0 0-4 4v14a3 3 0 0 1 3-3h7z"/></symbol>
    <symbol id="i-moon" viewBox="0 0 24 24" fill="none" stroke="currentColor" stroke-width="2" stroke-linecap="round" stroke-linejoin="round"><path d="M21 12.79A9 9 0 1 1 11.21 3 7 7 0 0 0 21 12.79z"/></symbol>
    <symbol id="i-sun" viewBox="0 0 24 24" fill="none" stroke="currentColor" stroke-width="2" stroke-linecap="round" stroke-linejoin="round"><circle cx="12" cy="12" r="5"/><path d="M12 1v2M12 21v2M4.22 4.22l1.42 1.42M18.36 18.36l1.42 1.42M1 12h2M21 12h2M4.22 19.78l1.42-1.42M18.36 5.64l1.42-1.42"/></symbol>
    <symbol id="i-user" viewBox="0 0 24 24" fill="none" stroke="currentColor" stroke-width="2" stroke-linecap="round" stroke-linejoin="round"><path d="M20 21v-2a4 4 0 0 0-4-4H8a4 4 0 0 0-4 4v2"/><circle cx="12" cy="7" r="4"/></symbol>
    <symbol id="i-mail" viewBox="0 0 24 24" fill="none" stroke="currentColor" stroke-width="2" stroke-linecap="round" stroke-linejoin="round"><rect x="2" y="4" width="20" height="16" rx="2"/><path d="m22 6-10 7L2 6"/></symbol>
    <symbol id="i-lock" viewBox="0 0 24 24" fill="none" stroke="currentColor" stroke-width="2" stroke-linecap="round" stroke-linejoin="round"><rect x="3" y="11" width="18" height="11" rx="2"/><path d="M7 11V7a5 5 0 0 1 10 0v4"/></symbol>
    <symbol id="i-eye" viewBox="0 0 24 24" fill="none" stroke="currentColor" stroke-width="2" stroke-linecap="round" stroke-linejoin="round"><path d="M1 12s4-8 11-8 11 8 11 8-4 8-11 8-11-8-11-8z"/><circle cx="12" cy="12" r="3"/></symbol>
    <symbol id="i-eye-off" viewBox="0 0 24 24" fill="none" stroke="currentColor" stroke-width="2" stroke-linecap="round" stroke-linejoin="round"><path d="M17.94 17.94A10.07 10.07 0 0 1 12 20c-7 0-11-8-11-8a18.45 18.45 0 0 1 5.06-5.94M9.9 4.24A9.12 9.12 0 0 1 12 4c7 0 11 8 11 8a18.5 18.5 0 0 1-2.16 3.19m-6.72-1.07a3 3 0 1 1-4.24-4.24"/><path d="M1 1l22 22"/></symbol>
    <symbol id="i-at" viewBox="0 0 24 24" fill="none" stroke="currentColor" stroke-width="2" stroke-linecap="round" stroke-linejoin="round"><circle cx="12" cy="12" r="4"/><path d="M16 8v5a3 3 0 0 0 6 0v-1a10 10 0 1 0-3.92 7.94"/></symbol>
    <symbol id="i-cal" viewBox="0 0 24 24" fill="none" stroke="currentColor" stroke-width="2" stroke-linecap="round" stroke-linejoin="round"><rect x="3" y="4" width="18" height="18" rx="2"/><path d="M16 2v4M8 2v4M3 10h18"/></symbol>
    <symbol id="i-leaf" viewBox="0 0 24 24" fill="none" stroke="currentColor" stroke-width="2" stroke-linecap="round" stroke-linejoin="round"><path d="M11 20A7 7 0 0 1 4 13C4 6 12 4 20 4c0 8-3 16-9 16z"/><path d="M4 20c2.5-2.5 5-6.5 8-9.5"/></symbol>
    <symbol id="i-check" viewBox="0 0 24 24" fill="none" stroke="currentColor" stroke-width="2" stroke-linecap="round" stroke-linejoin="round"><path d="M22 11.08V12a10 10 0 1 1-5.93-9.14"/><path d="m22 4-10 10.01-3-3"/></symbol>
    <symbol id="i-heart" viewBox="0 0 24 24" fill="none" stroke="currentColor" stroke-width="2" stroke-linecap="round" stroke-linejoin="round"><path d="M20.84 4.61a5.5 5.5 0 0 0-7.78 0L12 5.67l-1.06-1.06a5.5 5.5 0 1 0-7.78 7.78L12 21.23l8.84-8.84a5.5 5.5 0 0 0 0-7.78z"/></symbol>
    <symbol id="i-sparkles" viewBox="0 0 24 24" fill="none" stroke="currentColor" stroke-width="2" stroke-linecap="round" stroke-linejoin="round"><path d="M12 3l1.7 4.6L18 9l-4.3 1.4L12 15l-1.7-4.6L6 9l4.3-1.4z"/><path d="M5 15l.8 2.2L8 18l-2.2.8L5 21l-.8-2.2L2 18l2.2-.8z"/></symbol>
    <symbol id="i-search" viewBox="0 0 24 24" fill="none" stroke="currentColor" stroke-width="2" stroke-linecap="round" stroke-linejoin="round"><circle cx="11" cy="11" r="7"/><path d="m21 21-4.3-4.3"/></symbol>
    <symbol id="i-globe" viewBox="0 0 24 24" fill="none" stroke="currentColor" stroke-width="2" stroke-linecap="round" stroke-linejoin="round"><circle cx="12" cy="12" r="10"/><path d="M2 12h20"/><path d="M12 2a15 15 0 0 1 0 20 15 15 0 0 1 0-20z"/></symbol>
    <symbol id="i-grid" viewBox="0 0 24 24" fill="none" stroke="currentColor" stroke-width="2" stroke-linecap="round" stroke-linejoin="round"><rect x="3" y="3" width="7" height="7" rx="1.5"/><rect x="14" y="3" width="7" height="7" rx="1.5"/><rect x="3" y="14" width="7" height="7" rx="1.5"/><rect x="14" y="14" width="7" height="7" rx="1.5"/></symbol>
    <symbol id="i-trend" viewBox="0 0 24 24" fill="none" stroke="currentColor" stroke-width="2" stroke-linecap="round" stroke-linejoin="round"><path d="M3 17l6-6 4 4 7-7"/><path d="M17 7h4v4"/></symbol>
    <symbol id="i-shield" viewBox="0 0 24 24" fill="none" stroke="currentColor" stroke-width="2" stroke-linecap="round" stroke-linejoin="round"><path d="M12 22s8-4 8-10V5l-8-3-8 3v7c0 6 8 10 8 10z"/></symbol>
    <symbol id="i-google" viewBox="0 0 48 48"><path fill="#FFC107" d="M43.6 20.5H42V20H24v8h11.3C33.7 32.3 29.3 35 24 35c-6.6 0-12-5.4-12-12s5.4-12 12-12c3.1 0 5.9 1.2 8 3.1l5.7-5.7C34.6 5.1 29.6 3 24 3 12.9 3 4 11.9 4 23s8.9 20 20 20 20-8.9 20-20c0-1.3-.1-2.6-.4-3.5z"/><path fill="#FF3D00" d="M6.3 14.7l6.6 4.8C14.7 16 19 13 24 13c3.1 0 5.9 1.2 8 3.1l5.7-5.7C34.6 5.1 29.6 3 24 3 16.3 3 9.7 7.3 6.3 14.7z"/><path fill="#4CAF50" d="M24 43c5.2 0 9.9-1.7 13.6-4.7l-6.3-5.2C29.1 34.8 26.7 35 24 35c-5.3 0-9.7-2.7-11.3-6.9l-6.6 5.1C9.5 38.6 16.2 43 24 43z"/><path fill="#1976D2" d="M43.6 20.5H42V20H24v8h11.3c-.8 2.2-2.2 4.1-4 5.5l6.3 5.2C39.9 36.2 44 30.7 44 23c0-1.3-.1-2.6-.4-3.5z"/></symbol>
    <symbol id="i-apple" viewBox="0 0 24 24" fill="currentColor"><path d="M18.71 19.5c-.83 1.24-1.71 2.45-3.05 2.47-1.34.03-1.77-.79-3.29-.79-1.53 0-2 .77-3.27.82-1.31.05-2.3-1.32-3.14-2.53C4.25 17.39 2.94 12.9 4.7 9.82c.87-1.52 2.43-2.48 4.12-2.51 1.28-.02 2.5.87 3.29.87.78 0 2.26-1.07 3.81-.91.65.03 2.47.26 3.64 1.98-.09.06-2.17 1.28-2.15 3.81.03 3.02 2.65 4.03 2.68 4.04-.03.07-.42 1.44-1.38 2.4M13 3.5c.73-.83 1.94-1.46 2.94-1.5.13 1.17-.34 2.35-1.04 3.19-.69.85-1.83 1.51-2.95 1.42-.15-1.15.41-2.35 1.05-3.11z"/></symbol>
  <symbol id="i-note" viewBox="0 0 24 24" fill="none" stroke="currentColor" stroke-width="2" stroke-linecap="round" stroke-linejoin="round"><path d="M11 4H5a2 2 0 0 0-2 2v13a2 2 0 0 0 2 2h13a2 2 0 0 0 2-2v-6"/><path d="M18.5 2.5a2.12 2.12 0 0 1 3 3L12 15l-4 1 1-4z"/></symbol>
    <symbol id="i-arrow-left" viewBox="0 0 24 24" fill="none" stroke="currentColor" stroke-width="2" stroke-linecap="round" stroke-linejoin="round"><line x1="19" y1="12" x2="5" y2="12"/><polyline points="12 19 5 12 12 5"/></symbol>
    <symbol id="i-clock" viewBox="0 0 24 24" fill="none" stroke="currentColor" stroke-width="2" stroke-linecap="round" stroke-linejoin="round"><circle cx="12" cy="12" r="10"/><polyline points="12 6 12 12 16 14"/></symbol>
    <symbol id="i-info" viewBox="0 0 24 24" fill="none" stroke="currentColor" stroke-width="2" stroke-linecap="round" stroke-linejoin="round"><circle cx="12" cy="12" r="10"/><line x1="12" y1="16" x2="12" y2="12"/><line x1="12" y1="8" x2="12.01" y2="8"/></symbol>
    <symbol id="i-circle" viewBox="0 0 24 24" fill="none" stroke="currentColor" stroke-width="2" stroke-linecap="round" stroke-linejoin="round"><circle cx="12" cy="12" r="9"/></symbol>
</svg>
